<svg xmlns="http://www.w3.org/2000/svg" width="18" height="18" viewBox="0 0 18 18">
  <defs>
    <mask id="clear-badge" maskUnits="userSpaceOnUse" x="0" y="0" width="18" height="18">
      <rect width="18" height="18" fill="#fff"/>
      <rect x="7.55" y="9.45" width="10.65" height="8.75" rx="4.375" fill="#000"/>
    </mask>
    <mask id="cut-nine-plus" maskUnits="userSpaceOnUse" x="0" y="0" width="18" height="18">
      <rect width="18" height="18" fill="#fff"/>
      <circle cx="10.95" cy="12.95" r="1.2" fill="none" stroke="#000" stroke-width=".88"/>
      <path d="M12 13.3c0 1.55-.45 2.5-1.75 2.85M15.05 12.25v3.05M13.525 13.775h3.05" fill="none" stroke="#000" stroke-width=".88" stroke-linecap="round"/>
    </mask>
  </defs>
  <path fill="#000" mask="url(#clear-badge)" transform="translate(1 1)" d="M1.5 3.25a2.25 2.25 0 1 1 3 2.122v5.256a2.251 2.251 0 1 1-1.5 0V5.372A2.25 2.25 0 0 1 1.5 3.25Zm5.677-.177L9.573.677A.25.25 0 0 1 10 .854V2.5h1A2.5 2.5 0 0 1 13.5 5v5.628a2.251 2.251 0 1 1-1.5 0V5a1 1 0 0 0-1-1h-1v1.646a.25.25 0 0 1-.427.177L7.177 3.427a.25.25 0 0 1 0-.354ZM3.75 2.5a.75.75 0 1 0 0 1.5.75.75 0 0 0 0-1.5Zm0 9.5a.75.75 0 1 0 0 1.5.75.75 0 0 0 0-1.5Zm8.25.75a.75.75 0 1 0 1.5 0 .75.75 0 0 0-1.5 0Z"/>
  <rect x="8.25" y="10.15" width="9.25" height="7.35" rx="3.675" fill="#000" mask="url(#cut-nine-plus)"/>
</svg>
