<svg xmlns="http://www.w3.org/2000/svg" width="18" height="18" viewBox="0 0 18 18">
  <defs>
    <mask id="clear-badge" maskUnits="userSpaceOnUse" x="0" y="0" width="18" height="18">
      <rect width="18" height="18" fill="#fff"/>
      <circle cx="14" cy="14" r="4.6" fill="#000"/>
    </mask>
    <mask id="cut-four" maskUnits="userSpaceOnUse" x="0" y="0" width="18" height="18">
      <rect width="18" height="18" fill="#fff"/>
      <path d="M15.05 16.55v-5.1l-3.15 3.2h4.35" fill="none" stroke="#000" stroke-width="1.15" stroke-linecap="round" stroke-linejoin="round"/>
    </mask>
  </defs>
  <path fill="#000" mask="url(#clear-badge)" transform="translate(1 1)" d="M1.5 3.25a2.25 2.25 0 1 1 3 2.122v5.256a2.251 2.251 0 1 1-1.5 0V5.372A2.25 2.25 0 0 1 1.5 3.25Zm5.677-.177L9.573.677A.25.25 0 0 1 10 .854V2.5h1A2.5 2.5 0 0 1 13.5 5v5.628a2.251 2.251 0 1 1-1.5 0V5a1 1 0 0 0-1-1h-1v1.646a.25.25 0 0 1-.427.177L7.177 3.427a.25.25 0 0 1 0-.354ZM3.75 2.5a.75.75 0 1 0 0 1.5.75.75 0 0 0 0-1.5Zm0 9.5a.75.75 0 1 0 0 1.5.75.75 0 0 0 0-1.5Zm8.25.75a.75.75 0 1 0 1.5 0 .75.75 0 0 0-1.5 0Z"/>
  <circle cx="14" cy="14" r="3.9" fill="#000" mask="url(#cut-four)"/>
</svg>
